<svg xmlns="http://www.w3.org/2000/svg" xmlns:xlink="http://www.w3.org/1999/xlink" version="1.1" width="256" height="256" viewBox="0 0 256 256" xml:space="preserve">

<defs>
</defs>
<g style="stroke: none; stroke-width: 0; stroke-dasharray: none; stroke-linecap: butt; stroke-linejoin: miter; stroke-miterlimit: 10; fill: none; fill-rule: nonzero; opacity: 1;" transform="translate(1.4065934065934016 1.4065934065934016) scale(2.81 2.81)" >
	<path d="M 38.927 31.756 c 0 -3.168 -2.007 -6.035 -4.94 -7.148 c -1.113 -2.934 -3.98 -4.94 -7.148 -4.94 c -3.168 0 -6.035 2.006 -7.148 4.94 c -2.934 1.113 -4.94 3.979 -4.94 7.148 c 0 0.961 0.177 1.893 0.526 2.78 c -1.37 1.42 -2.143 3.313 -2.143 5.302 c 0 3.928 2.911 7.141 6.742 7.584 c 1.225 2.72 3.944 4.504 6.963 4.504 c 3.018 0 5.738 -1.785 6.963 -4.504 c 3.83 -0.443 6.741 -3.656 6.741 -7.584 c 0 -1.988 -0.773 -3.882 -2.143 -5.302 C 38.75 33.649 38.927 32.717 38.927 31.756 z M 38.543 39.838 c 0 3.065 -2.402 5.54 -5.468 5.633 c -0.414 0.013 -0.777 0.279 -0.913 0.669 c -0.679 1.942 -2.351 3.33 -4.323 3.687 V 32.957 l 3.214 -2.838 c 0.414 -0.365 0.454 -0.998 0.088 -1.411 c -0.365 -0.414 -0.997 -0.454 -1.411 -0.088 l -1.891 1.67 v -3.971 c 0 -0.552 -0.448 -1 -1 -1 s -1 0.448 -1 1 v 10.176 l -2.273 -2.406 c -0.38 -0.403 -1.013 -0.42 -1.414 -0.041 c -0.402 0.379 -0.419 1.012 -0.041 1.414 l 3.728 3.945 v 10.421 c -1.972 -0.358 -3.645 -1.745 -4.322 -3.687 c -0.001 -0.004 -0.004 -0.007 -0.006 -0.011 c -0.001 -0.002 0 -0.005 -0.001 -0.007 c -0.623 -1.678 -0.51 -2.947 0.354 -3.994 c 0.352 -0.426 0.292 -1.056 -0.134 -1.408 c -0.426 -0.351 -1.056 -0.291 -1.408 0.134 c -1.019 1.233 -1.386 2.703 -1.111 4.379 c -2.367 -0.676 -4.077 -2.818 -4.077 -5.398 c 0 -1.656 0.727 -3.223 1.995 -4.3 c 0.354 -0.301 0.454 -0.805 0.243 -1.218 c -0.412 -0.805 -0.621 -1.667 -0.621 -2.563 c 0 -1.966 1.057 -3.762 2.677 -4.777 c 0.281 1.443 1.367 2.261 1.804 2.588 c 0.18 0.135 0.39 0.2 0.598 0.2 c 0.305 0 0.605 -0.138 0.801 -0.401 c 0.331 -0.442 0.241 -1.069 -0.201 -1.399 c -0.964 -0.722 -1.232 -1.346 -0.988 -2.296 c 0.715 -2.357 2.932 -4.003 5.397 -4.003 c 2.47 0 4.691 1.651 5.403 4.016 c 0.097 0.321 0.348 0.573 0.669 0.669 c 2.365 0.711 4.016 2.933 4.016 5.403 c 0 0.896 -0.209 1.758 -0.621 2.563 c -0.002 0.003 -0.002 0.007 -0.003 0.011 c -0.002 0.003 -0.004 0.005 -0.006 0.008 c -0.89 1.832 -1.908 1.772 -2.876 1.437 c -0.521 -0.18 -1.091 0.095 -1.272 0.617 c -0.181 0.521 0.095 1.091 0.617 1.272 c 0.55 0.191 1.078 0.285 1.578 0.285 c 1.183 0 2.211 -0.528 3.021 -1.554 C 38.122 37.375 38.543 38.58 38.543 39.838 z" style="stroke: none; stroke-width: 1; stroke-dasharray: none; stroke-linecap: butt; stroke-linejoin: miter; stroke-miterlimit: 10; fill: rgb(0,0,0); fill-rule: nonzero; opacity: 1;" transform=" matrix(1 0 0 1 0 0) " stroke-linecap="round" />
	<path d="M 74.653 38.101 c 0.148 0.08 0.312 0.119 0.474 0.119 c 0.193 0 0.386 -0.056 0.552 -0.166 l 6.145 -4.068 c 0.28 -0.186 0.448 -0.499 0.448 -0.834 s -0.168 -0.648 -0.448 -0.834 l -6.145 -4.069 c -0.306 -0.203 -0.699 -0.221 -1.025 -0.047 c -0.324 0.174 -0.526 0.513 -0.526 0.881 v 8.137 C 74.127 37.588 74.329 37.926 74.653 38.101 z M 76.127 30.944 l 3.333 2.208 l -3.333 2.207 V 30.944 z" style="stroke: none; stroke-width: 1; stroke-dasharray: none; stroke-linecap: butt; stroke-linejoin: miter; stroke-miterlimit: 10; fill: rgb(0,0,0); fill-rule: nonzero; opacity: 1;" transform=" matrix(1 0 0 1 0 0) " stroke-linecap="round" />
	<path d="M 74.165 56.239 c 0.553 0 1 -0.447 1 -1 v -1.292 h 2.034 v 5.803 h -1.482 c -0.553 0 -1 0.447 -1 1 s 0.447 1 1 1 h 4.965 c 0.553 0 1 -0.447 1 -1 s -0.447 -1 -1 -1 h -1.482 v -5.803 h 2.034 v 1.292 c 0 0.553 0.447 1 1 1 s 1 -0.447 1 -1 v -2.292 c 0 -0.553 -0.447 -1 -1 -1 h -8.068 c -0.553 0 -1 0.447 -1 1 v 2.292 C 73.165 55.792 73.612 56.239 74.165 56.239 z" style="stroke: none; stroke-width: 1; stroke-dasharray: none; stroke-linecap: butt; stroke-linejoin: miter; stroke-miterlimit: 10; fill: rgb(0,0,0); fill-rule: nonzero; opacity: 1;" transform=" matrix(1 0 0 1 0 0) " stroke-linecap="round" />
	<path d="M 84.214 0 H 72.185 c -1.896 0 -3.438 1.542 -3.438 3.439 v 5.212 H 56.883 c -0.553 0 -1 0.448 -1 1 v 14.745 h -7.567 c -1.231 -2.255 -2.813 -4.325 -4.713 -6.109 c -4.98 -4.677 -11.502 -7.022 -18.343 -6.586 C 13.091 12.465 3.268 22.209 2.41 34.368 c -0.572 8.109 2.882 15.955 9.241 20.986 c 3.13 2.478 4.925 6.11 4.925 9.967 v 0.56 v 6.278 c 0 1.439 0.977 2.643 2.297 3.017 v 4.283 c 0 2.696 2.193 4.89 4.89 4.89 h 6.152 c 2.696 0 4.89 -2.193 4.89 -4.89 v -4.283 c 1.321 -0.374 2.297 -1.577 2.297 -3.017 v -6.278 v -0.562 c 0 -3.843 1.777 -7.517 4.753 -9.829 c 3.758 -2.921 6.515 -6.766 8.058 -11.094 h 5.97 v 36.151 c 0 0.553 0.447 1 1 1 h 11.863 v 5.015 c 0 1.896 1.543 3.438 3.438 3.438 h 12.029 c 1.896 0 3.439 -1.543 3.439 -3.438 V 74.532 c 0 -1.896 -1.543 -3.439 -3.439 -3.439 H 72.185 c -1.896 0 -3.438 1.543 -3.438 3.439 v 5.015 H 57.883 V 43.396 c 0 -0.552 -0.447 -1 -1 -1 H 50.52 c 0.341 -1.302 0.576 -2.638 0.699 -4 h 10.997 v 18.453 c 0 0.553 0.447 1 1 1 h 5.529 v 5.015 c 0 1.896 1.543 3.439 3.438 3.439 h 12.029 c 1.896 0 3.439 -1.543 3.439 -3.439 V 50.834 c 0 -1.896 -1.543 -3.438 -3.439 -3.438 H 72.185 c -1.896 0 -3.438 1.543 -3.438 3.438 v 5.015 h -4.529 V 37.396 c 0 -0.552 -0.447 -1 -1 -1 H 51.324 c 0.001 -0.085 0.007 -0.168 0.007 -0.253 c 0 -1.261 -0.099 -2.513 -0.292 -3.747 h 17.707 v 6.77 c 0 1.896 1.543 3.439 3.438 3.439 h 12.029 c 1.896 0 3.439 -1.542 3.439 -3.439 V 27.137 c 0 -1.896 -1.543 -3.439 -3.439 -3.439 H 72.185 c -1.896 0 -3.438 1.542 -3.438 3.439 v 3.259 H 50.634 c -0.333 -1.37 -0.776 -2.71 -1.336 -4 h 7.585 c 0.553 0 1 -0.448 1 -1 V 10.651 h 10.863 v 3.167 v 1.65 c 0 1.896 1.543 3.439 3.438 3.439 h 12.029 c 1.896 0 3.439 -1.542 3.439 -3.439 v -1.824 V 3.439 C 87.653 1.542 86.11 0 84.214 0 z M 70.746 74.532 c 0 -0.794 0.646 -1.439 1.438 -1.439 h 12.029 c 0.794 0 1.439 0.646 1.439 1.439 v 12.029 c 0 0.793 -0.646 1.438 -1.439 1.438 H 72.185 c -0.793 0 -1.438 -0.646 -1.438 -1.438 V 74.532 z M 70.746 50.834 c 0 -0.793 0.646 -1.438 1.438 -1.438 h 12.029 c 0.794 0 1.439 0.646 1.439 1.438 v 12.029 c 0 0.794 -0.646 1.439 -1.439 1.439 H 72.185 c -0.793 0 -1.438 -0.646 -1.438 -1.439 V 50.834 z M 70.746 27.137 c 0 -0.793 0.646 -1.439 1.438 -1.439 h 12.029 c 0.794 0 1.439 0.646 1.439 1.439 v 12.029 c 0 0.793 -0.646 1.439 -1.439 1.439 H 72.185 c -0.793 0 -1.438 -0.646 -1.438 -1.439 V 27.137 z M 32.805 79.459 c 0 1.594 -1.296 2.89 -2.89 2.89 h -6.152 c -1.593 0 -2.89 -1.296 -2.89 -2.89 v -4.151 h 11.932 V 79.459 z M 35.102 72.159 c 0 0.633 -0.515 1.148 -1.148 1.148 h -0.149 H 19.873 h -0.149 c -0.633 0 -1.148 -0.516 -1.148 -1.148 v -5.278 h 16.526 V 72.159 z M 40.628 53.91 c -3.346 2.601 -5.389 6.676 -5.519 10.971 h -16.54 c -0.131 -4.307 -2.184 -8.33 -5.677 -11.095 c -5.84 -4.621 -9.013 -11.828 -8.487 -19.277 c 0.788 -11.163 9.807 -20.11 20.98 -20.812 c 6.293 -0.392 12.275 1.752 16.849 6.048 c 1.886 1.772 3.417 3.805 4.573 6.02 c 0.009 0.023 0.023 0.043 0.034 0.065 c 1.626 3.142 2.491 6.649 2.491 10.313 c 0 2.366 -0.371 4.671 -1.066 6.854 c -0.005 0.012 -0.007 0.024 -0.012 0.036 C 46.891 47.288 44.277 51.075 40.628 53.91 z M 70.746 3.439 C 70.746 2.646 71.392 2 72.185 2 h 12.029 c 0.794 0 1.439 0.646 1.439 1.439 v 7.878 l -3.606 -3.421 C 81.67 7.54 81.085 7.53 80.696 7.872 l -4.997 4.414 l -2.141 -1.792 c -0.366 -0.306 -0.896 -0.312 -1.27 -0.011 l -1.543 1.244 V 3.439 z M 85.653 15.468 c 0 0.793 -0.646 1.439 -1.439 1.439 H 72.185 c -0.793 0 -1.438 -0.646 -1.438 -1.439 v -1.171 l 2.159 -1.741 l 2.17 1.816 c 0.378 0.317 0.935 0.31 1.304 -0.018 l 4.955 -4.377 l 4.319 4.096 V 15.468 z" style="stroke: none; stroke-width: 1; stroke-dasharray: none; stroke-linecap: butt; stroke-linejoin: miter; stroke-miterlimit: 10; fill: rgb(0,0,0); fill-rule: nonzero; opacity: 1;" transform=" matrix(1 0 0 1 0 0) " stroke-linecap="round" />
	<path d="M 74.76 8.263 c 0.999 0 1.808 -0.81 1.808 -1.808 c 0 -0.999 -0.81 -1.808 -1.808 -1.808 s -1.808 0.81 -1.808 1.808 C 72.952 7.454 73.762 8.263 74.76 8.263 z" style="stroke: none; stroke-width: 1; stroke-dasharray: none; stroke-linecap: butt; stroke-linejoin: miter; stroke-miterlimit: 10; fill: rgb(0,0,0); fill-rule: nonzero; opacity: 1;" transform=" matrix(1 0 0 1 0 0) " stroke-linecap="round" />
	<path d="M 76.359 86.899 c 1.717 0 3.113 -1.265 3.113 -2.819 v -7.403 c 0.555 0.241 1.214 0.891 1.723 2.573 c 0.16 0.528 0.716 0.828 1.247 0.667 c 0.528 -0.16 0.827 -0.718 0.667 -1.247 c -1.1 -3.632 -3.173 -4.246 -4.721 -4.108 c -0.518 0.043 -0.916 0.477 -0.916 0.996 v 5.898 c -0.347 -0.121 -0.72 -0.194 -1.113 -0.194 c -1.716 0 -3.112 1.265 -3.112 2.819 S 74.644 86.899 76.359 86.899 z M 76.359 83.261 c 0.604 0 1.113 0.375 1.113 0.819 s -0.51 0.819 -1.113 0.819 c -0.603 0 -1.112 -0.375 -1.112 -0.819 S 75.757 83.261 76.359 83.261 z" style="stroke: none; stroke-width: 1; stroke-dasharray: none; stroke-linecap: butt; stroke-linejoin: miter; stroke-miterlimit: 10; fill: rgb(0,0,0); fill-rule: nonzero; opacity: 1;" transform=" matrix(1 0 0 1 0 0) " stroke-linecap="round" />
</g>
</svg>